# xmcd
#
# Track frame offsets:
#	150
#	11721
#	23996
#	35689
#	48294
#	60200
#	73076
#	85426
#	96772
#	110176
#	121539
#	134591
#	145921
#	159139
#	172125
#	184637
#	193624
#	206014
#	217596
#	230676
#	240278
#	250768
#	261399
#	273041
#
# Disc length: 3803 seconds
# Revision: 4
# Processed by: cddbd v1.5.2PL0 Copyright (c) Steve Scherf et al.
# Submitted via: dBpowerAMP V12.0
#
DISCID=4f0ed918
DTITLE=Marty Robbins - Six Classic Albums Plus Bonus Singles [Remastered]
DYEAR=1962
DGENRE=Western
TTITLE0=Love Me Or Leave Me Alone [Remastered]
TTITLE1=Tomorrow You'll Be Gone [Remastered]
TTITLE2=Crying 'Cause I Love You [Remastered]
TTITLE3=I Wish Somebody Loved Me [Remastered]
TTITLE4=I'll Go On Alone [Remastered]
TTITLE5=You're Breaking My Heart [Remastered]
TTITLE6=I Couldn't Keep From Crying [Remastered]
TTITLE7=After You Leave [Remastered]
TTITLE8=A Castle in the Sky [Remastered]
TTITLE9=A Half-Way Chance With You [Remastered]
TTITLE10=Sing Me Something Sentimental [Remastered]
TTITLE11=At the End of a Long Lonely Day [Remastered]
TTITLE12=Blessed Jesus Should I Fall Don't Let Me Lay [Remastered]
TTITLE13=Kneel and Let the Lord Take Your Load [Remastered]
TTITLE14=Don't Make Me Ashamed [Remastered]
TTITLE15=It's a Long, Long Ride [Remastered]
TTITLE16=Your Heart's Turn to Break [Remastered]
TTITLE17=Pretty Words [Remastered]
TTITLE18=I'm Too Big to Cry [Remastered]
TTITLE19=Call Me Up (And I'll Come Calling On You) [Remastered]
TTITLE20=It's a Pity What Money Can Do [Remastered]
TTITLE21=Time Goes By [Remastered]
TTITLE22=That's All Right [Remastered]
TTITLE23=Gossip [Remastered]
EXTD=
EXTT0=
EXTT1=
EXTT2=
EXTT3=
EXTT4=
EXTT5=
EXTT6=
EXTT7=
EXTT8=
EXTT9=
EXTT10=
EXTT11=
EXTT12=
EXTT13=
EXTT14=
EXTT15=
EXTT16=
EXTT17=
EXTT18=
EXTT19=
EXTT20=
EXTT21=
EXTT22=
EXTT23=
PLAYORDER=
